<svg xmlns="http://www.w3.org/2000/svg" width="21" height="20" viewBox="0 0 21 20"><g><g opacity="-1"><path fill="#a3acb2" d="M20.978 2.067c0 .014.008.02.021.02v10.538c0 .579-.204 1.073-.613 1.481a1.938 1.938 0 0 1-1.48.635H7.177l-5.071 4.93c-.1.1-.233.184-.402.254a1.071 1.071 0 0 1-.444.085h-.127a.28.28 0 0 1-.126-.021 1.599 1.599 0 0 0-.127-.053.415.415 0 0 0-.127-.032c-.211-.07-.388-.225-.528-.465a1.063 1.063 0 0 1-.233-.677V2.024l9.659 8.041h.02l.043.042c.014 0 .029.008.042.022l.022.02h.02l.022.022h.021l.042.042h.043c0 .014.007.021.02.021.014.015.03.021.043.021h.042c.014.015.029.022.042.022l.021.02h.085c0 .015.007.022.021.022h.127c.014.014.035.021.063.021h.106c.029 0 .05-.007.064-.021h.126l.021-.021h.043c.028 0 .056-.014.084-.043h.043c.013 0 .028-.006.042-.02h.021l.021-.022h.021l.042-.042c.029 0 .056-.014.085-.042.014-.014.029-.022.042-.022l.021-.02h.022v-.022h.02l9.765-8.04zM10.432 7.44L1.449.056a.293.293 0 0 0 .127-.02c.056 0 .14-.014.254-.043h17.204c.028.014.07.021.126.021.114.029.198.042.254.042z"/></g></g></svg>