<svg xmlns="http://www.w3.org/2000/svg" width="20" height="20" viewBox="0 0 20 20"><g><g opacity="-1"><path fill="#a3acb2" d="M17.55 11.344l1.777 1.053c.124.07.234.165.33.29.165.22.248.474.248.763 0 .124-.034.269-.103.434l-.186.496c-.083.193-.235.365-.455.516a1.14 1.14 0 0 1-.64.206h-.165a.655.655 0 0 1-.165-.04l-1.962-.558c-.359.468-.64.805-.847 1.012-.344.33-.682.598-1.012.805l.537 1.982c.069.304.041.586-.083.847-.124.262-.338.448-.64.558l-.496.206a.057.057 0 0 1-.041.02.15.15 0 0 1-.062.022c-.11.028-.186.04-.227.04h-.104a.884.884 0 0 1-.578-.185.94.94 0 0 1-.475-.413l-1.012-1.776c-.33.041-.523.062-.578.062-.07.014-.173.02-.31.02a1.61 1.61 0 0 1-.33.021c-.152 0-.256-.006-.31-.02a2.15 2.15 0 0 1-.372-.021c-.083 0-.193-.013-.33-.041a.838.838 0 0 1-.166-.021.923.923 0 0 0-.165-.02l-1.053 1.755a.99.99 0 0 1-.413.413c-.179.11-.38.165-.6.165H6.46a.341.341 0 0 1-.144-.02c-.014 0-.083-.021-.207-.063l-.516-.227c-.234-.096-.428-.289-.578-.578a.965.965 0 0 1-.083-.826l.537-1.962c-.482-.399-.805-.688-.97-.867-.372-.372-.648-.703-.827-.992l-2.003.517c-.015.014-.035.02-.062.02h-.083c-.014.014-.041.021-.082.021h-.062c-.276 0-.496-.062-.661-.186-.235-.179-.387-.358-.455-.537l-.185-.516a1.262 1.262 0 0 1-.021-.867c.096-.262.274-.468.537-.62l1.776-.991a7.113 7.113 0 0 1-.103-1.322 6.4 6.4 0 0 1 .124-1.26L.635 7.606c-.289-.192-.469-.413-.537-.66a1.225 1.225 0 0 1 .041-.827l.186-.496c.166-.289.365-.495.6-.62a1.1 1.1 0 0 1 .805-.06l2.003.536c.22-.29.502-.62.847-.991.302-.317.633-.585.991-.806L5.076 1.7c-.07-.261-.035-.544.103-.847.124-.275.317-.454.578-.537L6.253.09a1.33 1.33 0 0 1 .454-.083c.11 0 .24.021.393.062.289.11.495.29.62.537l1.032 1.776a.547.547 0 0 1 .165-.02c.07 0 .117-.007.145-.021.069-.013.165-.02.289-.02.083 0 .193-.004.33-.011.138-.007.235-.01.29-.01h.35l.682.062a.766.766 0 0 0 .165.03c.07.008.124.01.166.01L12.366.648c.11-.124.214-.228.31-.31.193-.179.454-.269.785-.269.137 0 .268.028.392.083l.496.227c.29.11.496.296.62.558.124.317.151.606.082.867l-.557 1.962c.317.234.647.516.991.847.207.22.475.55.806.99l1.982-.515c.303-.083.586-.055.847.082.22.11.406.324.558.64l.206.496c.07.124.103.262.103.413 0 .152-.027.29-.082.413-.124.303-.303.524-.537.66L17.57 8.805c.055.262.083.681.083 1.26 0 .51-.034.936-.104 1.28zm-9.5 3.222c.193.096.509.185.95.268.302.083.627.124.97.124a5.54 5.54 0 0 0 1.446-.207c.978-.33 1.763-.853 2.355-1.569.771-.895 1.156-1.955 1.156-3.18 0-.62-.116-1.24-.35-1.859-.483-1.225-1.371-2.127-2.665-2.705-.083-.042-.392-.138-.93-.29a5.497 5.497 0 0 0-1.011-.082c-.978 0-1.887.268-2.727.805-.798.524-1.404 1.26-1.817 2.21a4.835 4.835 0 0 0-.393 1.859c0 .647.117 1.287.351 1.92a5.003 5.003 0 0 0 1.074 1.611c.4.427.93.792 1.59 1.095z"/></g></g></svg>