<svg xmlns="http://www.w3.org/2000/svg" width="21" height="22" viewBox="0 0 21 22"><g><g><path fill="#fff" d="M-.008 12.996V5.011c0-.553.192-1.027.58-1.422a1.898 1.898 0 0 1 1.409-.592h4.996c.284 0 .524.099.722.296.198.198.296.43.296.699a.982.982 0 0 1-.296.723.982.982 0 0 1-.722.296H1.98v7.985c0 .285-.1.526-.296.723a.955.955 0 0 1-.698.296.951.951 0 0 1-.699-.296.982.982 0 0 1-.295-.723zM20.994-.013a2 2 0 0 1-.047.38c-.032.158-.17.458-.414.9a4.52 4.52 0 0 1-1.03 1.232c-.285.253-.817.66-1.599 1.22-.781.561-1.33 1.031-1.645 1.41.441.032.998-.043 1.669-.225a8.433 8.433 0 0 0 1.835-.722 5.42 5.42 0 0 1-.71 1.421c-.506.68-1.05 1.193-1.634 1.54-.584.348-1.374.68-2.368.996a3.012 3.012 0 0 0-.9.45c-.284.205-.489.379-.615.521l-.19.237c1.042.048 2.14-.142 3.291-.569-.189.87-.88 1.628-2.071 2.275-1.193.648-2.285 1.035-3.28 1.161 0 .016-.008.024-.024.024-1.879.316-3.756 1.983-5.635 5-.379.616-.994 1.572-1.847 2.867-.379.6-.715 1.078-1.006 1.434-.293.355-.502.509-.628.462-.095-.031-.15-.146-.165-.344-.017-.197.018-.481.106-.853.086-.37.217-.794.39-1.268.931-2.432 2.352-5.062 4.263-7.89 4.42-6.603 9.172-10.49 14.254-11.659zM9.285 19.714a.953.953 0 0 1-.296-.7c0-.283.099-.52.296-.71a.975.975 0 0 1 .699-.284h8.003v-4.005c0-.284.098-.525.296-.723a.956.956 0 0 1 .699-.296c.268 0 .5.1.698.296a.983.983 0 0 1 .296.723v4.005c0 .553-.193 1.023-.58 1.41-.387.387-.856.58-1.409.58H9.984a.954.954 0 0 1-.699-.296z"/></g></g></svg>