<svg xmlns="http://www.w3.org/2000/svg" width="20" height="17" viewBox="0 0 20 17"><g><g><path fill="#55acee" d="M19.976 1.988a7.486 7.486 0 0 1-.92 1.195c-.307.336-.681.679-1.121 1.028v.273c0 .07.006.119.02.147v.147c0 1.44-.26 2.884-.781 4.332A12.691 12.691 0 0 1 14.952 13a11.183 11.183 0 0 1-3.743 2.917c-1.468.713-3.11 1.07-4.925 1.07-1.174 0-2.282-.168-3.323-.504A11.274 11.274 0 0 1 0 15.057c.053.014.133.02.24.02.213.029.374.043.48.043h.26c.935 0 1.849-.161 2.743-.483a8.453 8.453 0 0 0 2.342-1.342c-.854-.014-1.648-.308-2.382-.881a3.996 3.996 0 0 1-1.441-2.12c.2.043.327.064.38.064h.2c.04.014.1.02.18.02.12 0 .214-.006.28-.02.134 0 .32-.028.561-.084a.525.525 0 0 0 .12-.021.525.525 0 0 1 .12-.021c-.947-.196-1.728-.692-2.342-1.49A4.29 4.29 0 0 1 .8 6.016v-.062c.253.167.547.293.88.377.347.112.674.168.981.168A4.058 4.058 0 0 1 1.34 4.967C1.006 4.35.84 3.666.84 2.91c0-.42.046-.797.14-1.133.053-.238.186-.58.4-1.028 1.04 1.343 2.282 2.391 3.723 3.147a10.853 10.853 0 0 0 4.724 1.342 9.4 9.4 0 0 1-.06-.482 3.683 3.683 0 0 1-.04-.483c0-1.188.4-2.202 1.201-3.041.801-.84 1.769-1.26 2.903-1.26.587 0 1.141.12 1.661.357.521.266.968.602 1.342 1.007.427-.098.88-.237 1.36-.42.401-.153.815-.363 1.242-.628-.16.503-.394.958-.7 1.363-.348.42-.715.755-1.102 1.007.4-.07.801-.154 1.201-.252a8.959 8.959 0 0 0 1.141-.42z"/></g></g></svg>